<svg xmlns="http://www.w3.org/2000/svg" width="100" height="44" fill="none" xmlns:v="https://vecta.io/nano"><path fill-rule="evenodd" d="M98.982 31.367c.296.966-.1 1.583-1.056 1.7l-5.405.633c-.816.092-1.458-.258-1.634-1.048L86.15 13.298c-.14-.46-.504-.415-.543.066l-.9 20.01c-.045.816-.549 1.308-1.368 1.4l-3.906.457c-.819.101-1.408-.262-1.63-1.048L72.616 14.89c-.142-.459-.506-.415-.549.066l-.443 19.959c-.004.804-.551 1.301-1.368 1.397l-5.405.635c-.958.112-1.472-.403-1.397-1.412l2.29-30.866c.05-.818.552-1.306 1.368-1.405l6.409-.748c.816-.098 1.363.27 1.632 1.046l3.764 11.307c.14.455.507.413.543-.068l1.234-11.883c.097-.823.547-1.306 1.37-1.402l6.402-.753c.818-.096 1.413.263 1.632 1.048l8.885 29.556zM.093 12.709c-.289-.971.106-1.59 1.058-1.703l5.405-.633c.823-.096 1.458.256 1.636 1.046l4.732 19.351c.145.462.502.42.547-.065l.9-20.011c.05-.813.554-1.306 1.365-1.397l3.911-.457c.818-.098 1.408.26 1.632 1.048l5.186 19.295c.145.464.504.422.549-.063l.443-19.959c.007-.813.545-1.303 1.368-1.4l5.408-.638c.954-.11 1.471.406 1.39 1.414l-2.288 30.867c-.047.818-.551 1.306-1.365 1.393l-6.406.757c-.821.098-1.365-.267-1.635-1.051l-3.764-11.299c-.143-.455-.507-.415-.543.07l-1.236 11.881c-.095.83-.547 1.308-1.368 1.407l-6.404.748c-.821.098-1.411-.263-1.634-1.046L.093 12.709zm50.707-8.384c-10.768 1.254-12.058 9.86-12.296 13.037l-.929 12.045c-.242 3.177-.258 11.632 10.512 10.369 10.767-1.269 12.056-9.867 12.298-13.049l.925-12.038c.244-3.182.258-11.628-10.51-10.364zm-2.085 27.16c-3.359.396-3.416-1.838-3.129-5.553l.529-6.931c.285-3.712.685-6 4.051-6.394s3.416 1.841 3.133 5.55l-.536 6.938c-.276 3.705-.68 5.996-4.049 6.39z" fill="#fff"/></svg>